# xmcd
#
# Track frame offsets: 
#        150
#        11188
#        36651
#        52345
#        72019
#        96729
#        112354
#        130657
#        149127
#        166090
#        183697
#
# Disc length: 2619 seconds
#
# Revision: 1
# Processed by: cddbd v1.5.2PL0 Copyright (c) Steve Scherf et al.
# Submitted via: ExactAudioCopy v0.99pb3
#
DISCID=b70a390b
DTITLE=¿Ã∑Á∏∂ - P.N.O.N.I
DYEAR=2008
DGENRE=New Age
TTITLE0=Piano
TTITLE1=Love
TTITLE2=Joy
TTITLE3=Loanna
TTITLE4=Ribbonized
TTITLE5=Eve
TTITLE6=Present
TTITLE7=Letter
TTITLE8=Sky
TTITLE9=Journey
TTITLE10=Hope
EXTD=YEAR: 2008
EXTT0=
EXTT1=
EXTT2=
EXTT3=
EXTT4=
EXTT5=
EXTT6=
EXTT7=
EXTT8=
EXTT9=
EXTT10=
PLAYORDER=
